<svg width="38" height="38" viewBox="0 0 38 38" fill="none" xmlns="http://www.w3.org/2000/svg">
<path d="M7.70833 4.625H7.98583H7.70833ZM30.8333 17.8217C30.8213 14.7449 29.5979 11.7967 27.4281 9.61536C25.2583 7.434 22.3166 6.19502 19.24 6.16667H19.1475C18.9498 6.16663 18.7599 6.24409 18.6187 6.38244C18.4775 6.5208 18.3961 6.709 18.3921 6.90667C18.39 7.0079 18.408 7.10854 18.4448 7.20285C18.4817 7.29715 18.5368 7.38327 18.6069 7.45629C18.6771 7.5293 18.7609 7.58778 18.8537 7.62838C18.9464 7.66898 19.0463 7.69091 19.1475 7.69292C21.8475 7.70516 24.4323 8.78842 26.3342 10.7048C28.2362 12.6213 29.2999 15.2142 29.2917 17.9142C29.3113 18.1173 29.4091 18.3049 29.5644 18.4372C29.7198 18.5695 29.9205 18.6363 30.1242 18.6233C30.3059 18.6088 30.4763 18.5289 30.6038 18.3986C30.7313 18.2683 30.8073 18.0962 30.8179 17.9142C30.8179 17.9142 30.8333 17.8525 30.8333 17.8217V17.8217Z" fill="#003300"/>
<path d="M26.1004 18.0067C26.0923 16.1774 25.362 14.4254 24.0685 13.1319C22.775 11.8384 21.023 11.1081 19.1937 11.1C19.0157 11.1358 18.8555 11.2322 18.7404 11.3727C18.6253 11.5132 18.5624 11.6892 18.5624 11.8709C18.5624 12.0525 18.6253 12.2285 18.7404 12.369C18.8555 12.5096 19.0157 12.6059 19.1937 12.6417C20.6195 12.6458 21.9856 13.2139 22.9938 14.2221C24.0019 15.2302 24.5701 16.5964 24.5742 18.0221C24.5742 18.2265 24.6554 18.4226 24.7999 18.5672C24.9445 18.7117 25.1406 18.7929 25.345 18.7929C25.5508 18.7889 25.7469 18.7043 25.891 18.5573C26.0352 18.4103 26.1159 18.2126 26.1158 18.0067H26.1004ZM24.1733 32.6679C18.9254 32.4636 13.9552 30.2562 10.2848 26.4998C6.6144 22.7434 4.52276 17.7234 4.44 12.4721C4.43667 12.1742 4.52722 11.8829 4.69878 11.6394C4.87035 11.3959 5.11423 11.2126 5.39583 11.1154C8.07833 10.2521 11.5625 9.57378 12.6417 11.2079C13.3838 12.5967 13.83 14.1243 13.9521 15.6942V16.0179C14.0864 16.5082 14.0532 17.0292 13.8577 17.4984C13.6622 17.9676 13.3156 18.3581 12.8729 18.6079C12.6567 18.7007 12.471 18.8526 12.3374 19.0463C12.2037 19.24 12.1275 19.4674 12.1175 19.7025C13.4842 21.8294 15.2545 23.6678 17.3283 25.1138C17.5068 25.032 17.6654 24.9124 17.7931 24.7634C17.9209 24.6143 18.0148 24.4393 18.0683 24.2504C18.2071 23.4334 18.9625 22.7088 20.6892 22.94H21.0129C22.5568 23.0666 24.0553 23.524 25.4067 24.2813C26.9483 25.3913 26.3625 28.9063 25.5454 31.5579C25.4578 31.8612 25.2793 32.1302 25.0339 32.3287C24.7885 32.5272 24.4882 32.6456 24.1733 32.6679V32.6679ZM10.0979 11.5934C8.63495 11.6601 7.19027 11.9459 5.81208 12.4413C5.88304 17.3338 7.82587 22.0133 11.2411 25.5173C14.6562 29.0214 19.2842 31.0838 24.1733 31.2804C25.2988 27.7963 25.1908 25.8229 24.6512 25.4529C23.4709 24.8409 22.1829 24.4639 20.8587 24.3429H20.5196C20.0263 24.3429 19.5175 24.3429 19.4712 24.5279C19.3474 25.0103 19.1027 25.4532 18.7601 25.8147C18.4175 26.1761 17.9884 26.4443 17.5133 26.5938L17.1896 26.7017L16.9583 26.4704C14.5444 24.8587 12.4959 22.7578 10.9458 20.3038L10.7917 20.0417C10.7395 19.4981 10.8605 18.9519 11.1374 18.4812C11.4143 18.0105 11.8329 17.6394 12.3333 17.4209C12.5183 17.3129 12.8421 17.1434 12.7187 16.2646V15.9254C12.6162 14.5626 12.2497 13.2326 11.6396 12.0096C11.3312 11.7321 10.7917 11.5934 10.0979 11.5934Z" fill="#003300"/>
</svg>
